<?xml version="1.0" standalone="no"?>
<!DOCTYPE svg PUBLIC "-//W3C//DTD SVG 20010904//EN"
 "http://www.w3.org/TR/2001/REC-SVG-20010904/DTD/svg10.dtd">
<svg version="1.0" xmlns="http://www.w3.org/2000/svg"
 width="400.000000pt" height="400.000000pt" viewBox="0 0 400.000000 400.000000"
 preserveAspectRatio="xMidYMid meet">
<metadata>
Created by potrace 1.14, written by Peter Selinger 2001-2017
</metadata>
<g transform="translate(0.000000,400.000000) scale(0.100000,-0.100000)"
fill="#000000" stroke="none">
<path d="M1975 3384 c-103 -22 -210 -67 -252 -106 -21 -20 -22 -20 -42 -1 -32
30 -177 97 -195 90 -35 -14 -13 -37 75 -83 54 -28 94 -55 97 -66 9 -37 46 -32
112 16 34 26 74 49 89 53 14 3 31 9 36 13 22 16 149 32 203 26 111 -13 196
-36 237 -64 22 -15 63 -33 90 -40 127 -32 215 -136 314 -367 11 -27 29 -75 38
-105 14 -42 23 -55 38 -55 33 0 30 52 -10 156 -97 251 -194 372 -340 424 -27
9 -81 33 -120 51 -99 48 -281 76 -370 58z"/>
<path d="M1430 3211 c-76 -24 -134 -63 -210 -140 -78 -80 -132 -169 -165 -272
-82 -261 -71 -464 34 -625 35 -53 104 -107 131 -102 8 2 16 15 18 29 2 21 -3
29 -26 38 -56 24 -123 144 -146 262 -11 55 -11 85 0 170 27 209 86 343 205
461 81 81 126 110 203 129 41 10 46 14 46 40 0 34 -11 36 -90 10z"/>
<path d="M2387 3053 c-16 -15 -5 -48 28 -80 54 -52 78 -108 81 -184 3 -76 -13
-140 -50 -196 -42 -64 -44 -112 -5 -113 10 0 93 132 105 167 30 87 23 206 -18
288 -38 76 -117 143 -141 118z"/>
<path d="M2180 2845 c-11 -13 -9 -23 8 -54 28 -49 29 -132 4 -182 -24 -48
-157 -206 -185 -220 -46 -23 -87 -72 -87 -102 0 -25 -2 -27 -15 -17 -31 26
-59 122 -59 210 -1 75 -3 85 -20 88 -32 7 -46 -25 -46 -103 0 -99 21 -164 74
-221 38 -43 45 -47 60 -35 9 8 14 21 11 29 -3 8 8 0 24 -17 49 -52 125 -39
205 34 32 29 36 37 26 54 -6 12 -27 29 -47 40 l-37 18 55 18 c67 21 87 38 71
58 -7 8 -23 12 -37 9 -31 -5 -32 6 -2 35 13 12 38 49 56 83 31 58 33 67 29
143 -2 66 -7 88 -26 115 -26 35 -43 40 -62 17z"/>
<path d="M2690 2740 c-12 -7 -13 -18 -2 -67 7 -32 16 -59 22 -61 5 -2 10 -10
10 -18 0 -10 -15 -14 -59 -14 -104 0 -200 -68 -161 -115 16 -19 133 -57 153
-50 36 14 28 59 -15 89 -22 15 -20 16 28 16 27 0 55 5 61 11 9 9 20 5 46 -17
18 -16 54 -43 80 -61 25 -18 60 -51 76 -75 48 -68 52 -72 61 -58 5 7 15 10 24
7 8 -3 18 -1 22 5 4 6 3 8 -3 5 -6 -4 -27 20 -47 52 -25 41 -59 77 -111 116
-86 65 -100 82 -114 147 -20 89 -37 110 -71 88z"/>
<path d="M1591 2618 c-25 -124 -33 -199 -33 -297 0 -98 2 -107 36 -176 28 -56
44 -76 70 -89 64 -30 92 12 37 56 -37 29 -65 87 -81 161 -13 63 -10 103 21
269 11 59 18 112 14 118 -3 5 -17 10 -30 10 -20 0 -25 -7 -34 -52z"/>
<path d="M1290 2371 c-21 -41 6 -99 79 -171 78 -77 120 -98 157 -81 37 17 26
42 -29 69 -63 29 -132 101 -149 154 -15 48 -41 60 -58 29z"/>
<path d="M3070 2326 c0 -2 7 -7 16 -10 8 -3 12 -2 9 4 -6 10 -25 14 -25 6z"/>
<path d="M3023 2253 c-15 -6 -17 -42 -3 -77 8 -22 16 -26 48 -26 37 0 72 -25
72 -51 0 -20 35 -3 38 19 4 27 -47 82 -77 82 -13 0 -25 9 -30 24 -10 25 -28
36 -48 29z"/>
<path d="M2839 2171 l-85 -6 -60 -58 c-218 -210 -208 -202 -270 -220 -32 -9
-108 -19 -169 -22 -94 -5 -119 -3 -175 14 -36 12 -84 21 -108 21 -23 0 -69 7
-101 16 -64 18 -94 14 -89 -13 4 -20 119 -52 188 -53 25 0 69 -9 98 -20 93
-35 359 -13 435 36 22 14 174 153 232 211 l42 43 90 2 c67 2 89 6 86 16 -3 6
-10 12 -15 12 -6 0 -8 7 -4 15 3 8 2 14 -2 13 -4 0 -45 -4 -93 -7z"/>
<path d="M1400 2015 c0 -23 21 -47 88 -102 31 -26 41 -92 26 -178 -7 -38 -19
-84 -28 -101 -16 -31 -12 -56 17 -121 11 -25 13 -22 -69 -118 -74 -88 -114
-150 -114 -179 0 -24 -16 -63 -31 -76 -3 -3 -17 -28 -31 -56 -35 -67 -44 -116
-25 -132 17 -14 30 -2 42 38 15 49 58 130 70 130 7 0 18 -7 25 -15 10 -12 10
-30 -2 -91 -9 -42 -13 -85 -10 -96 8 -32 35 -16 44 27 22 103 28 116 48 105
17 -9 19 -18 13 -88 -4 -62 -3 -80 9 -90 29 -24 43 -6 40 52 -2 30 0 62 5 71
9 15 11 15 31 -2 19 -16 20 -22 10 -59 -14 -52 -4 -94 22 -94 16 0 20 7 20 38
0 52 10 82 27 82 10 0 12 -8 7 -34 -3 -19 -3 -49 1 -66 5 -25 11 -31 28 -28
20 3 22 8 19 51 -3 41 -1 47 16 47 28 0 39 -18 45 -73 5 -54 18 -73 42 -64 13
5 15 16 9 55 -6 46 -5 50 17 55 48 12 199 303 199 383 0 13 4 25 8 28 5 3 53
-4 108 -15 87 -18 126 -20 329 -16 183 3 241 7 285 21 158 51 279 139 301 220
6 23 12 67 14 99 2 49 7 63 32 90 31 33 47 68 58 126 6 29 5 33 -10 28 -9 -4
-21 -7 -26 -7 -6 0 -8 -4 -5 -8 10 -16 -41 -108 -70 -127 -36 -24 -108 -58
-156 -74 -94 -31 -273 -118 -276 -134 -4 -22 23 -33 51 -19 96 47 272 119 340
139 20 6 22 -10 6 -77 -14 -62 -73 -120 -163 -160 -39 -17 -80 -36 -91 -41
-43 -19 -157 -29 -330 -29 -191 1 -295 15 -423 59 -58 20 -150 39 -273 55 -62
9 -160 68 -183 111 -16 29 -17 38 -6 67 7 18 19 51 27 73 8 22 14 72 14 112
l0 73 40 -6 c39 -7 41 -6 37 17 -2 20 -14 28 -66 44 -44 14 -75 32 -106 63
-49 48 -76 55 -76 17z m200 -583 c11 -15 63 -32 128 -42 132 -19 242 -44 242
-54 0 -63 -110 -317 -159 -369 -17 -17 -21 -17 -97 13 -118 46 -122 48 -197
92 -86 50 -147 104 -147 130 0 16 25 64 40 78 3 3 17 21 30 40 14 19 38 50 55
68 16 19 34 41 38 49 9 14 55 11 67 -5z"/>
</g>
</svg>
