<svg version="1.1" baseProfile="full" width="300" height="200" xmlns="http://www.w3.org/2000/svg" >

  <!-- <rect width="100%" height="100%" fill="red" />
  <circle cx="150" cy="100" r="80" fill="green" />
  <text x="60" y="60"  font-size="60" text-anchor="middle" fill="white">SVG</text> -->


  <!-- <path d="M10 10 H90 V90 H10 Z"  /> -->

  <!-- <path d="M10 10 h70 v70 h-70 z"/> -->


  <!-- <path d="M10 10 C 20 20, 40 20, 50 10" stroke="black" fill="transparent"/>
  <path d="M70 10 C 70 20, 120 20, 120 10" stroke="black" fill="transparent"/>
  <path d="M130 10 C 120 20, 180 20, 170 10" stroke="black" fill="transparent"/>
  <path d="M10 60 C 20 80, 40 80, 50 60" stroke="black" fill="transparent"/>
  <path d="M70 60 C 70 80, 110 80, 110 60" stroke="black" fill="transparent"/>
  <path d="M130 60 C 120 80, 180 80, 170 60" stroke="black" fill="transparent"/>
  <path d="M10 110 C 20 140, 40 140, 50 110" stroke="black" fill="transparent"/>
  <path d="M70 110 C 70 140, 110 140, 110 110" stroke="black" fill="transparent"/>
  <path d="M130 110 C 120 140, 180 140, 170 110" stroke="black" fill="transparent"/> -->


  <path d="M10 80 C 40 10, 65 10, 95 80 S 150 150, 180 80" stroke="black" fill="transparent"/>

  <circle cx="10" cy="80" r="5" fill="red" />


  <circle cx="180" cy="80" r="5" fill="red" />





  


</svg>